<svg width="600" height="844" viewBox="0 0 600 844" fill="none" xmlns="http://www.w3.org/2000/svg">
<rect width="600" height="844" fill="none"/>
<path d="M33 720H170.401V741.635V824H33V741.635V720Z" fill="#DAF3FF"/>
<path d="M33 741.635V824H170.401V741.635M33 741.635V720H170.401V741.635M33 741.635H170.401" stroke="black" stroke-width="2"/>
<circle cx="45.5255" cy="731.007" r="5.69343" fill="#F2ECFA" stroke="black" stroke-width="2"/>
<circle cx="59.9493" cy="731.007" r="5.69343" fill="#DAF3FF" stroke="black" stroke-width="2"/>
<circle cx="74.3731" cy="731.007" r="5.69343" fill="#CBF767" stroke="black" stroke-width="2"/>
<rect x="33" y="741.255" width="137.401" height="82.7445" fill="#DAF3FF" stroke="black" stroke-width="2"/>
<rect x="40.0723" y="746.051" width="38.2336" height="72.3942" rx="9" fill="white" stroke="black" stroke-width="2"/>
<rect x="82.584" y="746.051" width="38.2336" height="72.3942" rx="9" fill="white" stroke="black" stroke-width="2"/>
<rect x="125.096" y="746.051" width="38.2336" height="72.3942" rx="9" fill="white" stroke="black" stroke-width="2"/>
<path d="M68.6793 762.132C63.4369 762.132 59.1902 766.382 59.1902 771.621C59.1902 766.378 54.9397 762.132 49.7012 762.132C54.9397 762.132 59.1864 757.885 59.1864 752.643C59.1864 757.885 63.4369 762.132 68.6754 762.132H68.6793Z" fill="white" stroke="black" stroke-width="2" stroke-miterlimit="10"/>
<path d="M101.701 754.643L109.501 768.154H93.9001L101.701 754.643Z" fill="white" stroke="black" stroke-width="2"/>
<circle cx="145.73" cy="762.891" r="7.72993" fill="white" stroke="black" stroke-width="2"/>
<path d="M570 43.5C560.332 43.5 552.5 51.339 552.5 61C552.5 51.3319 544.661 43.5 535 43.5C544.661 43.5 552.493 35.6681 552.493 26C552.493 35.6681 560.332 43.5 569.993 43.5H570Z" fill="white" stroke="black" stroke-width="2" stroke-miterlimit="10"/>
<path d="M445 111C445 85.5956 465.819 65 491.5 65C517.181 65 538 85.5956 538 111" fill="#CBF767"/>
<path d="M445 111C445 85.5956 465.819 65 491.5 65C517.181 65 538 85.5956 538 111" stroke="black" stroke-width="3" stroke-miterlimit="10"/>
<path d="M455 111.001C455 90.5656 471.565 74 492 74C512.435 74 529 90.5656 529 111.001" fill="#D1B8F2"/>
<path d="M455 111.001C455 90.5656 471.565 74 492 74C512.435 74 529 90.5656 529 111.001" stroke="black" stroke-width="3" stroke-miterlimit="10"/>
<path d="M465.875 111.001C465.875 96.548 477.591 84.8329 492.042 84.8329C506.493 84.8329 518.209 96.5493 518.209 111.001" fill="#A6E1FC"/>
<path d="M465.875 111.001C465.875 96.548 477.591 84.8329 492.042 84.8329C506.493 84.8329 518.209 96.5493 518.209 111.001" stroke="black" stroke-width="3" stroke-miterlimit="10"/>
<path d="M478 111C478 103.268 484.268 97 492 97C499.732 97 506 103.268 506 111" fill="#F2ECFA"/>
<path d="M478 111C478 103.268 484.268 97 492 97C499.732 97 506 103.268 506 111" stroke="black" stroke-width="3" stroke-miterlimit="10"/>
<path d="M554 114H507.151H503C503.395 110.819 506.262 104.456 514.564 104.456C524.942 104.456 523.756 97 531.169 97C538.581 97 538.285 103.86 545.401 104.456C551.094 104.933 553.506 111.018 554 114Z" fill="white" stroke="black" stroke-width="2"/>
<path d="M480 114H433.151H429C429.395 110.819 432.262 104.456 440.564 104.456C450.942 104.456 449.756 97 457.169 97C464.581 97 464.285 103.86 471.401 104.456C477.094 104.933 479.506 111.018 480 114Z" fill="white" stroke="black" stroke-width="2"/>
<path d="M470.5 762C472.985 762 475 759.985 475 757.5C475 755.015 472.985 753 470.5 753C468.015 753 466 755.015 466 757.5C466 759.985 468.015 762 470.5 762Z" stroke="black" stroke-width="1.25" stroke-miterlimit="10"/>
<path d="M501.503 651.84H488.853C483.964 651.84 480 655.834 480 660.76V673.506C480 678.432 483.964 682.426 488.853 682.426H501.503C506.393 682.426 510.356 678.432 510.356 673.506V660.76C510.356 655.834 506.393 651.84 501.503 651.84Z" fill="#95D9C3" stroke="black" stroke-width="2" stroke-miterlimit="10"/>
<path d="M496.09 676.445L484.912 665.183L490.703 659.348L496.09 664.781L515.209 645L521 650.835L496.09 676.445Z" fill="white" stroke="black" stroke-width="2" stroke-miterlimit="10"/>
<path d="M568 740H510.128H505C505.488 736.07 509.029 728.211 519.285 728.211C532.105 728.211 530.64 719 539.797 719C548.953 719 548.587 727.474 557.378 728.211C564.41 728.8 567.39 736.316 568 740Z" fill="white" stroke="black" stroke-width="2"/>
<path d="M91.5123 189.732C107.023 180.778 112.337 160.945 103.382 145.434C94.4271 129.924 74.5942 124.61 59.0839 133.565C43.5736 142.52 38.2594 162.353 47.2142 177.863C56.1691 193.373 76.002 198.687 91.5123 189.732Z" fill="black" stroke="#241F20" stroke-width="2" stroke-miterlimit="10"/>
<path d="M90.8987 157.783C90.8987 157.783 96.3674 170.882 84.9625 177.467C73.5575 184.052 64.1543 173.224 64.1543 173.224" fill="black"/>
<path d="M90.8987 157.783C90.8987 157.783 96.3674 170.882 84.9625 177.467C73.5575 184.052 64.1543 173.224 64.1543 173.224" stroke="#241F20" stroke-width="2" stroke-linecap="round" stroke-linejoin="round"/>
<path d="M65.9305 160.866C66.5098 160.531 66.1953 158.902 65.2281 157.227C64.2608 155.552 63.0071 154.465 62.4278 154.799C61.8485 155.134 62.163 156.763 63.1303 158.438C64.0975 160.113 65.3512 161.2 65.9305 160.866Z" fill="black" stroke="#241F20" stroke-width="2" stroke-miterlimit="10"/>
<path d="M79.3055 153.144C79.8848 152.81 79.5703 151.18 78.6031 149.505C77.6358 147.83 76.3821 146.743 75.8028 147.077C75.2235 147.412 75.538 149.041 76.5053 150.716C77.4725 152.391 78.7262 153.478 79.3055 153.144Z" fill="black" stroke="#241F20" stroke-width="2" stroke-miterlimit="10"/>
<path d="M93.8229 186.383C109.333 177.429 114.647 157.596 105.693 142.085C96.7377 126.575 76.9047 121.261 61.3944 130.216C45.8841 139.171 40.5699 159.004 49.5248 174.514C58.4797 190.024 78.3126 195.338 93.8229 186.383Z" fill="#D5F77C" stroke="#241F20" stroke-width="2" stroke-miterlimit="10"/>
<path d="M93.2093 154.434C93.2093 154.434 98.6779 167.533 87.273 174.118C75.8681 180.703 66.4648 169.875 66.4648 169.875" stroke="#241F20" stroke-width="2" stroke-linecap="round" stroke-linejoin="round"/>
<path d="M68.2411 157.517C68.8203 157.182 68.5058 155.553 67.5386 153.878C66.5714 152.202 65.3176 151.115 64.7383 151.45C64.1591 151.784 64.4736 153.414 65.4408 155.089C66.4081 156.764 67.6618 157.851 68.2411 157.517Z" fill="black" stroke="#241F20" stroke-width="2" stroke-miterlimit="10"/>
<path d="M81.6161 149.795C82.1953 149.461 81.8808 147.831 80.9136 146.156C79.9464 144.481 78.6926 143.394 78.1133 143.728C77.5341 144.063 77.8486 145.692 78.8158 147.367C79.7831 149.042 81.0368 150.129 81.6161 149.795Z" fill="black" stroke="#241F20" stroke-width="2" stroke-miterlimit="10"/>
</svg>
