<svg width="960" height="844" viewBox="0 0 960 844" fill="none" xmlns="http://www.w3.org/2000/svg">
<rect width="960" height="844" fill="none"/>
<path d="M44 710.999H181.401V732.634V814.999H44V732.634V710.999Z" fill="#DAF3FF"/>
<path d="M44 732.634V814.999H181.401V732.634M44 732.634V710.999H181.401V732.634M44 732.634H181.401" stroke="black" stroke-width="2"/>
<circle cx="56.5255" cy="722.006" r="5.69343" fill="#F2ECFA" stroke="black" stroke-width="2"/>
<circle cx="70.9493" cy="722.006" r="5.69343" fill="#DAF3FF" stroke="black" stroke-width="2"/>
<circle cx="85.3731" cy="722.006" r="5.69343" fill="#CBF767" stroke="black" stroke-width="2"/>
<rect x="44" y="732.254" width="137.401" height="82.7445" fill="#DAF3FF" stroke="black" stroke-width="2"/>
<rect x="51.0723" y="737.05" width="38.2336" height="72.3942" rx="9" fill="white" stroke="black" stroke-width="2"/>
<rect x="93.584" y="737.05" width="38.2336" height="72.3942" rx="9" fill="white" stroke="black" stroke-width="2"/>
<rect x="136.096" y="737.05" width="38.2336" height="72.3942" rx="9" fill="white" stroke="black" stroke-width="2"/>
<path d="M79.6793 753.13C74.4369 753.13 70.1902 757.381 70.1902 762.619C70.1902 757.377 65.9397 753.13 60.7012 753.13C65.9397 753.13 70.1864 748.884 70.1864 743.641C70.1864 748.884 74.4369 753.13 79.6754 753.13H79.6793Z" fill="white" stroke="black" stroke-width="2" stroke-miterlimit="10"/>
<path d="M112.701 745.641L120.501 759.152H104.9L112.701 745.641Z" fill="white" stroke="black" stroke-width="2"/>
<circle cx="156.73" cy="753.89" r="7.72993" fill="white" stroke="black" stroke-width="2"/>
<path d="M912 63.5C902.332 63.5 894.5 71.339 894.5 81C894.5 71.3319 886.661 63.5 877 63.5C886.661 63.5 894.493 55.6681 894.493 46C894.493 55.6681 902.332 63.5 911.993 63.5H912Z" fill="white" stroke="black" stroke-width="2" stroke-miterlimit="10"/>
<path d="M787 131C787 105.596 807.819 85 833.5 85C859.181 85 880 105.596 880 131" fill="#CBF767"/>
<path d="M787 131C787 105.596 807.819 85 833.5 85C859.181 85 880 105.596 880 131" stroke="black" stroke-width="3" stroke-miterlimit="10"/>
<path d="M797 131.001C797 110.566 813.565 94 834 94C854.435 94 871 110.566 871 131.001" fill="#D1B8F2"/>
<path d="M797 131.001C797 110.566 813.565 94 834 94C854.435 94 871 110.566 871 131.001" stroke="black" stroke-width="3" stroke-miterlimit="10"/>
<path d="M807.875 131.001C807.875 116.548 819.591 104.833 834.042 104.833C848.493 104.833 860.209 116.549 860.209 131.001" fill="#A6E1FC"/>
<path d="M807.875 131.001C807.875 116.548 819.591 104.833 834.042 104.833C848.493 104.833 860.209 116.549 860.209 131.001" stroke="black" stroke-width="3" stroke-miterlimit="10"/>
<path d="M820 131C820 123.268 826.268 117 834 117C841.732 117 848 123.268 848 131" fill="#F2ECFA"/>
<path d="M820 131C820 123.268 826.268 117 834 117C841.732 117 848 123.268 848 131" stroke="black" stroke-width="3" stroke-miterlimit="10"/>
<path d="M896 134H849.151H845C845.395 130.819 848.262 124.456 856.564 124.456C866.942 124.456 865.756 117 873.169 117C880.581 117 880.285 123.86 887.401 124.456C893.094 124.933 895.506 131.018 896 134Z" fill="white" stroke="black" stroke-width="2"/>
<path d="M822 134H775.151H771C771.395 130.819 774.262 124.456 782.564 124.456C792.942 124.456 791.756 117 799.169 117C806.581 117 806.285 123.86 813.401 124.456C819.094 124.933 821.506 131.018 822 134Z" fill="white" stroke="black" stroke-width="2"/>
<path d="M812.5 782C814.985 782 817 779.985 817 777.5C817 775.015 814.985 773 812.5 773C810.015 773 808 775.015 808 777.5C808 779.985 810.015 782 812.5 782Z" stroke="black" stroke-width="1.25" stroke-miterlimit="10"/>
<path d="M843.503 671.84H830.853C825.964 671.84 822 675.834 822 680.76V693.506C822 698.432 825.964 702.426 830.853 702.426H843.503C848.393 702.426 852.356 698.432 852.356 693.506V680.76C852.356 675.834 848.393 671.84 843.503 671.84Z" fill="#95D9C3" stroke="black" stroke-width="2" stroke-miterlimit="10"/>
<path d="M838.09 696.445L826.912 685.183L832.703 679.348L838.09 684.781L857.209 665L863 670.835L838.09 696.445Z" fill="white" stroke="black" stroke-width="2" stroke-miterlimit="10"/>
<path d="M910 760H852.128H847C847.488 756.07 851.029 748.211 861.285 748.211C874.105 748.211 872.64 739 881.797 739C890.953 739 890.587 747.474 899.378 748.211C906.41 748.8 909.39 756.316 910 760Z" fill="white" stroke="black" stroke-width="2"/>
<path d="M102.512 180.732C118.023 171.777 123.337 151.944 114.382 136.434C105.427 120.924 85.5942 115.609 70.0839 124.564C54.5736 133.519 49.2594 153.352 58.2142 168.862C67.1691 184.373 87.002 189.687 102.512 180.732Z" fill="black" stroke="#241F20" stroke-width="2" stroke-miterlimit="10"/>
<path d="M101.899 148.782C101.899 148.782 107.367 161.882 95.9625 168.467C84.5575 175.051 75.1543 164.223 75.1543 164.223" fill="black"/>
<path d="M101.899 148.782C101.899 148.782 107.367 161.882 95.9625 168.467C84.5575 175.051 75.1543 164.223 75.1543 164.223" stroke="#241F20" stroke-width="2" stroke-linecap="round" stroke-linejoin="round"/>
<path d="M76.9305 151.865C77.5098 151.531 77.1953 149.902 76.2281 148.226C75.2608 146.551 74.0071 145.464 73.4278 145.799C72.8485 146.133 73.163 147.762 74.1303 149.438C75.0975 151.113 76.3512 152.2 76.9305 151.865Z" fill="black" stroke="#241F20" stroke-width="2" stroke-miterlimit="10"/>
<path d="M90.3055 144.144C90.8848 143.809 90.5703 142.18 89.6031 140.505C88.6358 138.829 87.3821 137.742 86.8028 138.077C86.2235 138.411 86.538 140.04 87.5053 141.716C88.4725 143.391 89.7262 144.478 90.3055 144.144Z" fill="black" stroke="#241F20" stroke-width="2" stroke-miterlimit="10"/>
<path d="M104.823 177.383C120.333 168.428 125.647 148.595 116.693 133.085C107.738 117.575 87.9047 112.26 72.3944 121.215C56.8841 130.17 51.5699 150.003 60.5248 165.513C69.4797 181.024 89.3126 186.338 104.823 177.383Z" fill="#D5F77C" stroke="#241F20" stroke-width="2" stroke-miterlimit="10"/>
<path d="M104.209 145.433C104.209 145.433 109.678 158.533 98.273 165.118C86.8681 171.702 77.4648 160.874 77.4648 160.874" stroke="#241F20" stroke-width="2" stroke-linecap="round" stroke-linejoin="round"/>
<path d="M79.2411 148.516C79.8203 148.182 79.5058 146.553 78.5386 144.877C77.5714 143.202 76.3176 142.115 75.7383 142.449C75.1591 142.784 75.4736 144.413 76.4408 146.088C77.4081 147.764 78.6618 148.851 79.2411 148.516Z" fill="black" stroke="#241F20" stroke-width="2" stroke-miterlimit="10"/>
<path d="M92.6161 140.795C93.1953 140.46 92.8808 138.831 91.9136 137.156C90.9464 135.48 89.6926 134.393 89.1133 134.728C88.5341 135.062 88.8486 136.691 89.8158 138.367C90.7831 140.042 92.0368 141.129 92.6161 140.795Z" fill="black" stroke="#241F20" stroke-width="2" stroke-miterlimit="10"/>
</svg>
