<svg width="1443" height="508" viewBox="0 0 1443 508" fill="none" xmlns="http://www.w3.org/2000/svg">
<rect width="1443" height="508" fill="none"/>
<path d="M238 145.5C228.332 145.5 220.5 153.339 220.5 163C220.5 153.332 212.661 145.5 203 145.5C212.661 145.5 220.493 137.668 220.493 128C220.493 137.668 228.332 145.5 237.993 145.5H238Z" fill="white" stroke="black" stroke-width="2" stroke-miterlimit="10"/>
<path d="M1312.07 361.311L1264.57 333.888L1237.15 381.386L1284.65 408.81L1312.07 361.311Z" fill="white" stroke="#241F20" stroke-width="2" stroke-miterlimit="10"/>
<path d="M1319.63 359.017L1309.91 353.408L1304.04 363.582L1313.75 369.191L1319.63 359.017Z" fill="white" stroke="#241F20" stroke-width="2" stroke-miterlimit="10"/>
<path d="M1292.13 406.803L1282.41 401.194L1276.54 411.368L1286.25 416.977L1292.13 406.803Z" fill="white" stroke="#241F20" stroke-width="2" stroke-miterlimit="10"/>
<path d="M1273.15 333.486L1263.43 327.877L1257.56 338.051L1267.27 343.66L1273.15 333.486Z" fill="white" stroke="#241F20" stroke-width="2" stroke-miterlimit="10"/>
<path d="M1244.99 378.655L1235.28 373.045L1229.41 383.219L1239.12 388.829L1244.99 378.655Z" fill="white" stroke="#241F20" stroke-width="2" stroke-miterlimit="10"/>
<path d="M1290.5 381.23C1282.05 375.97 1270.93 378.558 1265.67 387.011C1270.93 378.558 1268.34 367.438 1259.89 362.177C1268.34 367.438 1279.46 364.849 1284.72 356.396C1279.46 364.849 1282.05 375.97 1290.5 381.23Z" fill="white" stroke="black" stroke-width="2" stroke-linecap="round" stroke-linejoin="round"/>
<path d="M124 309H261.401V330.635V413H124V330.635V309Z" fill="white"/>
<path d="M124 330.635V413H261.401V330.635M124 330.635V309H261.401V330.635M124 330.635H261.401" stroke="black" stroke-width="2"/>
<circle cx="136.525" cy="320.007" r="5.69343" fill="white" stroke="black" stroke-width="2"/>
<circle cx="150.949" cy="320.007" r="5.69343" fill="white" stroke="black" stroke-width="2"/>
<circle cx="165.373" cy="320.007" r="5.69343" fill="white" stroke="black" stroke-width="2"/>
<rect x="124" y="330.255" width="137.401" height="82.7445" fill="white" stroke="black" stroke-width="2"/>
<rect x="131.072" y="335.051" width="38.2336" height="72.3942" rx="9" fill="white" stroke="black" stroke-width="2"/>
<rect x="173.584" y="335.051" width="38.2336" height="72.3942" rx="9" fill="white" stroke="black" stroke-width="2"/>
<rect x="216.096" y="335.051" width="38.2336" height="72.3942" rx="9" fill="white" stroke="black" stroke-width="2"/>
<path d="M159.679 351.132C154.437 351.132 150.19 355.382 150.19 360.621C150.19 355.378 145.94 351.132 140.701 351.132C145.94 351.132 150.186 346.885 150.186 341.643C150.186 346.885 154.437 351.132 159.675 351.132H159.679Z" fill="white" stroke="black" stroke-width="2" stroke-miterlimit="10"/>
<path d="M192.701 343.643L200.501 357.154H184.9L192.701 343.643Z" fill="white" stroke="black" stroke-width="2"/>
<circle cx="236.73" cy="351.891" r="7.72993" fill="white" stroke="black" stroke-width="2"/>
<path d="M1220.5 208C1222.99 208 1225 205.985 1225 203.5C1225 201.015 1222.99 199 1220.5 199C1218.01 199 1216 201.015 1216 203.5C1216 205.985 1218.01 208 1220.5 208Z" stroke="black" stroke-width="1.25" stroke-miterlimit="10"/>
<path d="M1251.5 97.8398H1238.85C1233.96 97.8398 1230 101.834 1230 106.76V119.506C1230 124.432 1233.96 128.426 1238.85 128.426H1251.5C1256.39 128.426 1260.36 124.432 1260.36 119.506V106.76C1260.36 101.834 1256.39 97.8398 1251.5 97.8398Z" fill="white" stroke="black" stroke-width="2" stroke-miterlimit="10"/>
<path d="M1246.09 122.445L1234.91 111.183L1240.7 105.348L1246.09 110.781L1265.21 91L1271 96.8348L1246.09 122.445Z" fill="white" stroke="black" stroke-width="2" stroke-miterlimit="10"/>
<path d="M1035.51 237.734C1051.02 228.779 1056.34 208.946 1047.38 193.436C1038.43 177.926 1018.59 172.611 1003.08 181.566C987.574 190.521 982.259 210.354 991.214 225.864C1000.17 241.375 1020 246.689 1035.51 237.734Z" fill="white" stroke="#241F20" stroke-width="2" stroke-miterlimit="10"/>
<path d="M1034.9 205.784C1034.9 205.784 1040.37 218.884 1028.96 225.468C1017.56 232.053 1008.15 221.225 1008.15 221.225" stroke="#241F20" stroke-width="2" stroke-linecap="round" stroke-linejoin="round"/>
<path d="M1009.93 208.867C1010.51 208.533 1010.2 206.904 1009.23 205.228C1008.26 203.553 1007.01 202.466 1006.43 202.801C1005.85 203.135 1006.16 204.764 1007.13 206.44C1008.1 208.115 1009.35 209.202 1009.93 208.867Z" fill="black" stroke="#241F20" stroke-width="2" stroke-miterlimit="10"/>
<path d="M1023.31 201.145C1023.88 200.811 1023.57 199.182 1022.6 197.506C1021.64 195.831 1020.38 194.744 1019.8 195.079C1019.22 195.413 1019.54 197.042 1020.51 198.718C1021.47 200.393 1022.73 201.48 1023.31 201.145Z" fill="black" stroke="#241F20" stroke-width="2" stroke-miterlimit="10"/>
<path d="M1037.82 234.385C1053.33 225.43 1058.65 205.597 1049.69 190.087C1040.74 174.577 1020.9 169.262 1005.39 178.217C989.884 187.172 984.57 207.005 993.525 222.515C1002.48 238.026 1022.31 243.34 1037.82 234.385Z" fill="white" stroke="#241F20" stroke-width="2" stroke-miterlimit="10"/>
<path d="M1037.21 202.435C1037.21 202.435 1042.68 215.535 1031.27 222.119C1019.87 228.704 1010.46 217.876 1010.46 217.876" stroke="#241F20" stroke-width="2" stroke-linecap="round" stroke-linejoin="round"/>
<path d="M1012.24 205.518C1012.82 205.184 1012.51 203.554 1011.54 201.879C1010.57 200.204 1009.32 199.117 1008.74 199.451C1008.16 199.786 1008.47 201.415 1009.44 203.09C1010.41 204.766 1011.66 205.853 1012.24 205.518Z" fill="black" stroke="#241F20" stroke-width="2" stroke-miterlimit="10"/>
<path d="M1025.62 197.796C1026.2 197.462 1025.88 195.833 1024.91 194.157C1023.95 192.482 1022.69 191.395 1022.11 191.73C1021.53 192.064 1021.85 193.693 1022.82 195.369C1023.78 197.044 1025.04 198.131 1025.62 197.796Z" fill="black" stroke="#241F20" stroke-width="2" stroke-miterlimit="10"/>
</svg>
